<svg xmlns="http://www.w3.org/2000/svg" xmlns:xlink="http://www.w3.org/1999/xlink" version="1.1" x="0px" y="0px" viewBox="0 0 100 100" enable-background="new 0 0 100 100" xml:space="preserve"><g><g><path d="M87.181,60.172c-0.774,0-1.408,0.634-1.408,1.408v24.79c0,0.774-0.634,1.408-1.408,1.408H14.791    c-0.774,0-1.408-0.634-1.408-1.408V61.58c0-0.774-0.634-1.408-1.408-1.408H1.408C0.634,60.172,0,60.806,0,61.58v37.012    C0,99.366,0.634,100,1.408,100h97.184c0.774,0,1.408-0.634,1.408-1.408V61.58c0-0.774-0.634-1.408-1.408-1.408H87.181z"></path></g><g><path d="M59.944,41.794c-1.24,0-2.254-1.014-2.254-2.253V3.899c0-1.239-1.014-2.253-2.254-2.253H44.563    c-1.24,0-2.254,1.014-2.254,2.253v35.642c0,1.239-1.014,2.253-2.254,2.253H27.174c-1.24,0-1.683,0.838-0.983,1.861l22.539,33.034    c0.699,1.023,1.842,1.023,2.541,0L73.81,43.656c0.699-1.023,0.257-1.861-0.983-1.861H59.944z"></path></g></g></svg>