<svg xmlns="http://www.w3.org/2000/svg" xmlns:xlink="http://www.w3.org/1999/xlink" version="1.1" x="0px" y="0px" viewBox="0 0 100 100" enable-background="new 0 0 100 100" xml:space="preserve"><circle cx="50" cy="30.004" r="7.971"></circle><path d="M50,0C33.805,0,20.675,13.13,20.675,29.326c0,21.204,14.663,23.46,14.663,40.079c0,1.955,1.955,3.909,3.91,3.909h21.505  c1.956,0,3.911-1.954,3.911-3.909c0-16.619,14.662-18.875,14.662-40.079C79.326,13.13,66.196,0,50,0z M69.83,34.546  c-0.678,0.704-3.71,0.102-4.499,0.735l-0.876,2.067c0.095,1.007,2.635,2.768,2.602,3.744c-0.025,0.735-2.31,3.018-2.72,3.405  c-0.391,0.407-2.699,2.666-3.435,2.683c-0.977,0.023-2.708-2.536-3.715-2.643l-2.076,0.854c-0.641,0.784-0.072,3.821-0.783,4.492  c-0.535,0.505-3.765,0.521-4.328,0.507c-0.564,0.014-3.794-0.002-4.328-0.507c-0.71-0.671-0.142-3.708-0.784-4.492L42.5,44.377  c-1.009,0.084-2.796,2.606-3.772,2.562c-0.734-0.034-2.993-2.342-3.375-2.757c-0.402-0.396-2.636-2.727-2.645-3.463  c-0.012-0.977,2.565-2.681,2.682-3.686l-0.831-2.085c-0.776-0.65-3.819-0.114-4.482-0.833c-0.5-0.541-0.481-3.77-0.461-4.333  c-0.008-0.564,0.044-3.793,0.554-4.323c0.679-0.702,3.709-0.102,4.5-0.733l0.876-2.067c-0.095-1.009-2.636-2.768-2.603-3.743  c0.026-0.735,2.309-3.02,2.72-3.406c0.391-0.405,2.699-2.666,3.434-2.682c0.977-0.023,2.709,2.537,3.716,2.643l2.076-0.854  c0.642-0.782,0.074-3.819,0.784-4.49C46.207,9.622,49.437,9.604,50,9.618c0.563-0.014,3.792,0.004,4.328,0.509  c0.711,0.671,0.143,3.708,0.783,4.49l2.389,1.013c1.008-0.083,2.796-2.604,3.771-2.561c0.734,0.033,2.993,2.342,3.375,2.757  c0.403,0.395,2.637,2.727,2.646,3.463c0.012,0.976-2.565,2.681-2.683,3.686l0.83,2.085c0.776,0.65,3.82,0.114,4.483,0.831  c0.499,0.541,0.481,3.77,0.461,4.334C70.393,30.788,70.341,34.017,69.83,34.546z"></path><g><path d="M61.3,80.596H38.7c-1.347,0-2.438-1.091-2.438-2.438c0-1.346,1.092-2.438,2.438-2.438h22.6   c1.347,0,2.438,1.093,2.438,2.438C63.738,79.505,62.646,80.596,61.3,80.596z"></path></g><g><path d="M61.3,87.879H38.7c-1.347,0-2.438-1.092-2.438-2.438c0-1.346,1.092-2.438,2.438-2.438h22.6   c1.347,0,2.438,1.093,2.438,2.438C63.738,86.787,62.646,87.879,61.3,87.879z"></path></g><path d="M59.47,91.138c-0.314-0.529-0.883-0.854-1.498-0.854H42.029c-0.615,0-1.185,0.324-1.498,0.853  c-0.313,0.529-0.326,1.184-0.031,1.724c1.899,3.479,5.539,5.642,9.5,5.642c3.959,0,7.599-2.161,9.5-5.642  C59.795,92.321,59.783,91.666,59.47,91.138z"></path></svg>